<svg width="30" height="30" viewBox="0 0 30 30" fill="none" xmlns="http://www.w3.org/2000/svg">
<g clip-path="url(#clip0_64_251)">
<path d="M10 21.25L15 26.25L20 21.25" stroke="#BBBBF8" stroke-width="2.5" stroke-linecap="round" stroke-linejoin="round"/>
<path d="M15 15V26.25" stroke="#BBBBF8" stroke-width="2.5" stroke-linecap="round" stroke-linejoin="round"/>
<path d="M26.1 22.6125C27.1867 21.8483 28.0017 20.7577 28.4266 19.4989C28.8515 18.2402 28.8642 16.8787 28.463 15.6123C28.0617 14.3458 27.2673 13.2401 26.1951 12.4557C25.1228 11.6713 23.8285 11.2489 22.5 11.25H20.925C20.549 9.78482 19.8456 8.42404 18.8676 7.27008C17.8897 6.11612 16.6627 5.19905 15.279 4.58792C13.8953 3.97679 12.391 3.68751 10.8794 3.74187C9.36774 3.79623 7.88812 4.19282 6.55192 4.90176C5.21572 5.6107 4.05776 6.61354 3.16521 7.83476C2.27267 9.05599 1.66879 10.4638 1.39905 11.9522C1.12931 13.4405 1.20074 14.9707 1.60795 16.4275C2.01516 17.8843 2.74755 19.2297 3.74998 20.3625" stroke="#BBBBF8" stroke-width="2.5" stroke-linecap="round" stroke-linejoin="round"/>
</g>
<defs>
<clipPath id="clip0_64_251">
<rect width="30" height="30" fill="white"/>
</clipPath>
</defs>
</svg>
