<svg width="22" height="21" viewBox="0 0 22 21" fill="none" xmlns="http://www.w3.org/2000/svg">
<path d="M2.75 5.25H4.58333H19.25" stroke="#FF9D9D" stroke-width="2" stroke-linecap="round" stroke-linejoin="round"/>
<path d="M7.33325 5.25V3.5C7.33325 3.03587 7.52641 2.59075 7.87022 2.26256C8.21404 1.93437 8.68035 1.75 9.16659 1.75H12.8333C13.3195 1.75 13.7858 1.93437 14.1296 2.26256C14.4734 2.59075 14.6666 3.03587 14.6666 3.5V5.25M17.4166 5.25V17.5C17.4166 17.9641 17.2234 18.4092 16.8796 18.7374C16.5358 19.0656 16.0695 19.25 15.5833 19.25H6.41659C5.93035 19.25 5.46404 19.0656 5.12022 18.7374C4.77641 18.4092 4.58325 17.9641 4.58325 17.5V5.25H17.4166Z" stroke="#FF9D9D" stroke-width="2" stroke-linecap="round" stroke-linejoin="round"/>
<path d="M9.16675 9.625V14.875" stroke="#FF9D9D" stroke-width="2" stroke-linecap="round" stroke-linejoin="round"/>
<path d="M12.8333 9.625V14.875" stroke="#FF9D9D" stroke-width="2" stroke-linecap="round" stroke-linejoin="round"/>
</svg>
